<mxfile host="65bd71144e">
    <diagram name="Page-1" id="c4acf3e9-155e-7222-9cf6-157b1a14988f">
        <mxGraphModel dx="1149" dy="553" grid="0" gridSize="10" guides="1" tooltips="1" connect="1" arrows="1" fold="1" page="1" pageScale="1" pageWidth="850" pageHeight="1100" background="none" math="0" shadow="0">
            <root>
                <mxCell id="0"/>
                <mxCell id="1" parent="0"/>
                <mxCell id="5d2195bd80daf111-10" value="&lt;p style=&quot;margin: 0px ; margin-top: 4px ; text-align: center&quot;&gt;&lt;i&gt;&amp;lt;&amp;lt;abstract&amp;gt;&amp;gt;&lt;/i&gt;&lt;br&gt;&lt;b&gt;Person&lt;/b&gt;&lt;/p&gt;&lt;hr size=&quot;1&quot;&gt;&lt;p style=&quot;margin: 0px ; margin-left: 4px&quot;&gt;+ firstname: String&lt;/p&gt;&lt;p style=&quot;margin: 0px ; margin-left: 4px&quot;&gt;+ middlename:String&lt;/p&gt;&lt;p style=&quot;margin: 0px ; margin-left: 4px&quot;&gt;+ lastname:String&lt;br&gt;&lt;/p&gt;&lt;hr size=&quot;1&quot;&gt;&lt;p style=&quot;margin: 0px ; margin-left: 4px&quot;&gt;+ToString()&lt;/p&gt;&lt;p style=&quot;margin: 0px 0px 0px 4px&quot;&gt;+ addShoolClass&lt;/p&gt;&lt;p style=&quot;margin: 0px 0px 0px 4px&quot;&gt;+ removeSchoolClass&lt;/p&gt;" style="verticalAlign=top;align=left;overflow=fill;fontSize=12;fontFamily=Helvetica;html=1;rounded=0;shadow=0;comic=0;labelBackgroundColor=none;strokeWidth=1" parent="1" vertex="1">
                    <mxGeometry x="-430" y="100" width="190" height="160" as="geometry"/>
                </mxCell>
                <mxCell id="_ZHwSp_K6urZNeZxSMzv-4" value="&lt;p style=&quot;margin: 0px ; margin-top: 4px ; text-align: center&quot;&gt;&lt;b&gt;Student&lt;/b&gt;&lt;/p&gt;&lt;hr size=&quot;1&quot;&gt;&lt;p style=&quot;margin: 0px ; margin-left: 4px&quot;&gt;- class: String&lt;br&gt;&lt;br&gt;&lt;/p&gt;&lt;hr size=&quot;1&quot;&gt;&lt;p style=&quot;margin: 0px ; margin-left: 4px&quot;&gt;&lt;br&gt;&lt;/p&gt;" style="verticalAlign=top;align=left;overflow=fill;fontSize=12;fontFamily=Helvetica;html=1;rounded=0;shadow=0;comic=0;labelBackgroundColor=none;strokeWidth=1" parent="1" vertex="1">
                    <mxGeometry x="-550" y="330" width="190" height="110" as="geometry"/>
                </mxCell>
                <mxCell id="_ZHwSp_K6urZNeZxSMzv-7" value="Extends" style="endArrow=block;endSize=16;endFill=0;html=1;rounded=0;entryX=0.5;entryY=1;entryDx=0;entryDy=0;exitX=0.5;exitY=0;exitDx=0;exitDy=0;edgeStyle=orthogonalEdgeStyle;" parent="1" source="_ZHwSp_K6urZNeZxSMzv-4" target="5d2195bd80daf111-10" edge="1">
                    <mxGeometry width="160" relative="1" as="geometry">
                        <mxPoint x="180" y="320" as="sourcePoint"/>
                        <mxPoint x="-120" y="360" as="targetPoint"/>
                    </mxGeometry>
                </mxCell>
                <mxCell id="_ZHwSp_K6urZNeZxSMzv-8" value="&lt;p style=&quot;margin: 0px ; margin-top: 4px ; text-align: center&quot;&gt;&lt;b&gt;Teacher&lt;/b&gt;&lt;/p&gt;&lt;hr size=&quot;1&quot;&gt;&lt;p style=&quot;margin: 0px ; margin-left: 4px&quot;&gt;- class: List&lt;br&gt;- salary: Float&lt;/p&gt;&lt;hr size=&quot;1&quot;&gt;&lt;p style=&quot;margin: 0px ; margin-left: 4px&quot;&gt;&lt;span&gt;+ setSalary(Float): Void&lt;/span&gt;&lt;br&gt;&lt;/p&gt;&lt;p style=&quot;margin: 0px 0px 0px 4px&quot;&gt;+ getSalary():Float&lt;/p&gt;" style="verticalAlign=top;align=left;overflow=fill;fontSize=12;fontFamily=Helvetica;html=1;rounded=0;shadow=0;comic=0;labelBackgroundColor=none;strokeWidth=1" parent="1" vertex="1">
                    <mxGeometry x="-310" y="330" width="190" height="140" as="geometry"/>
                </mxCell>
                <mxCell id="_ZHwSp_K6urZNeZxSMzv-9" value="Extends" style="endArrow=block;endSize=16;endFill=0;html=1;rounded=0;entryX=0.5;entryY=1;entryDx=0;entryDy=0;exitX=0.5;exitY=0;exitDx=0;exitDy=0;edgeStyle=orthogonalEdgeStyle;" parent="1" source="_ZHwSp_K6urZNeZxSMzv-8" target="5d2195bd80daf111-10" edge="1">
                    <mxGeometry width="160" relative="1" as="geometry">
                        <mxPoint x="-295" y="400" as="sourcePoint"/>
                        <mxPoint x="-145" y="330" as="targetPoint"/>
                    </mxGeometry>
                </mxCell>
                <mxCell id="3h-WEEQfE9mpqYWTIAE3-1" value="&lt;p style=&quot;margin: 0px ; margin-top: 4px ; text-align: center&quot;&gt;&lt;b&gt;Class&lt;/b&gt;&lt;/p&gt;&lt;hr size=&quot;1&quot;&gt;&lt;p style=&quot;margin: 0px ; margin-left: 4px&quot;&gt;- Id int&lt;/p&gt;&lt;p style=&quot;margin: 0px ; margin-left: 4px&quot;&gt;- name: String&lt;br&gt;&lt;br&gt;&lt;/p&gt;&lt;hr size=&quot;1&quot;&gt;&lt;p style=&quot;margin: 0px ; margin-left: 4px&quot;&gt;&lt;br&gt;&lt;/p&gt;" style="verticalAlign=top;align=left;overflow=fill;fontSize=12;fontFamily=Helvetica;html=1;rounded=0;shadow=0;comic=0;labelBackgroundColor=none;strokeWidth=1" parent="1" vertex="1">
                    <mxGeometry x="-425" y="560" width="190" height="100" as="geometry"/>
                </mxCell>
                <mxCell id="3h-WEEQfE9mpqYWTIAE3-4" value="&lt;p style=&quot;margin: 0px ; margin-top: 4px ; text-align: center&quot;&gt;&lt;b&gt;School&lt;/b&gt;&lt;/p&gt;&lt;hr size=&quot;1&quot;&gt;&lt;p style=&quot;margin: 0px ; margin-left: 4px&quot;&gt;- Id: int&lt;/p&gt;&lt;p style=&quot;margin: 0px ; margin-left: 4px&quot;&gt;- Adress:String&lt;/p&gt;&lt;p style=&quot;margin: 0px ; margin-left: 4px&quot;&gt;- name: String&lt;/p&gt;&lt;hr size=&quot;1&quot;&gt;&lt;p style=&quot;margin: 0px 0px 0px 4px&quot;&gt;+ addClass&lt;/p&gt;&lt;p style=&quot;margin: 0px 0px 0px 4px&quot;&gt;+ removeClass&lt;/p&gt;&lt;p style=&quot;margin: 0px 0px 0px 4px&quot;&gt;+ addTeacher&lt;/p&gt;&lt;p style=&quot;margin: 0px 0px 0px 4px&quot;&gt;+ removeTeacher&lt;/p&gt;" style="verticalAlign=top;align=left;overflow=fill;fontSize=12;fontFamily=Helvetica;html=1;rounded=0;shadow=0;comic=0;labelBackgroundColor=none;strokeWidth=1" parent="1" vertex="1">
                    <mxGeometry x="-780" y="330" width="190" height="165" as="geometry"/>
                </mxCell>
                <mxCell id="3h-WEEQfE9mpqYWTIAE3-8" value="" style="endArrow=0;html=1;endSize=12;startArrow=diamondThin;startSize=14;startFill=0;edgeStyle=orthogonalEdgeStyle;rounded=0;entryX=0;entryY=0.25;entryDx=0;entryDy=0;exitX=0.5;exitY=0;exitDx=0;exitDy=0;" parent="1" source="3h-WEEQfE9mpqYWTIAE3-4" target="5d2195bd80daf111-10" edge="1">
                    <mxGeometry relative="1" as="geometry">
                        <mxPoint x="-630" y="20" as="sourcePoint"/>
                        <mxPoint x="-420" y="140" as="targetPoint"/>
                    </mxGeometry>
                </mxCell>
                <mxCell id="3h-WEEQfE9mpqYWTIAE3-9" value="1" style="edgeLabel;resizable=0;html=1;align=left;verticalAlign=top;" parent="3h-WEEQfE9mpqYWTIAE3-8" connectable="0" vertex="1">
                    <mxGeometry x="-1" relative="1" as="geometry">
                        <mxPoint x="15" y="-20" as="offset"/>
                    </mxGeometry>
                </mxCell>
                <mxCell id="3h-WEEQfE9mpqYWTIAE3-10" value="0..n" style="edgeLabel;resizable=0;html=1;align=right;verticalAlign=top;" parent="3h-WEEQfE9mpqYWTIAE3-8" connectable="0" vertex="1">
                    <mxGeometry x="1" relative="1" as="geometry">
                        <mxPoint x="-20" y="-20" as="offset"/>
                    </mxGeometry>
                </mxCell>
                <mxCell id="3h-WEEQfE9mpqYWTIAE3-33" value="ocupies/enrolls" style="edgeLabel;html=1;align=center;verticalAlign=middle;resizable=0;points=[];" parent="3h-WEEQfE9mpqYWTIAE3-8" vertex="1" connectable="0">
                    <mxGeometry x="-0.1762" y="-2" relative="1" as="geometry">
                        <mxPoint as="offset"/>
                    </mxGeometry>
                </mxCell>
                <mxCell id="3h-WEEQfE9mpqYWTIAE3-16" value="" style="endArrow=0;html=1;endSize=12;startArrow=diamondThin;startSize=14;startFill=0;edgeStyle=orthogonalEdgeStyle;rounded=0;entryX=0;entryY=0.5;entryDx=0;entryDy=0;exitX=0.5;exitY=1;exitDx=0;exitDy=0;" parent="1" source="3h-WEEQfE9mpqYWTIAE3-4" target="3h-WEEQfE9mpqYWTIAE3-1" edge="1">
                    <mxGeometry relative="1" as="geometry">
                        <mxPoint x="-580" y="710" as="sourcePoint"/>
                        <mxPoint x="-700" y="582.5" as="targetPoint"/>
                    </mxGeometry>
                </mxCell>
                <mxCell id="3h-WEEQfE9mpqYWTIAE3-17" value="1" style="edgeLabel;resizable=0;html=1;align=left;verticalAlign=top;" parent="3h-WEEQfE9mpqYWTIAE3-16" connectable="0" vertex="1">
                    <mxGeometry x="-1" relative="1" as="geometry">
                        <mxPoint x="-30" as="offset"/>
                    </mxGeometry>
                </mxCell>
                <mxCell id="3h-WEEQfE9mpqYWTIAE3-18" value="&lt;span style=&quot;text-align: left&quot;&gt;0..n&lt;/span&gt;" style="edgeLabel;resizable=0;html=1;align=right;verticalAlign=top;" parent="3h-WEEQfE9mpqYWTIAE3-16" connectable="0" vertex="1">
                    <mxGeometry x="1" relative="1" as="geometry"/>
                </mxCell>
                <mxCell id="3h-WEEQfE9mpqYWTIAE3-32" value="has" style="edgeLabel;html=1;align=center;verticalAlign=middle;resizable=0;points=[];" parent="3h-WEEQfE9mpqYWTIAE3-16" vertex="1" connectable="0">
                    <mxGeometry x="-0.2091" y="2" relative="1" as="geometry">
                        <mxPoint as="offset"/>
                    </mxGeometry>
                </mxCell>
                <mxCell id="3h-WEEQfE9mpqYWTIAE3-23" value="follows" style="endArrow=0;html=1;endSize=12;startArrow=0;startSize=14;startFill=0;edgeStyle=orthogonalEdgeStyle;rounded=0;entryX=0.25;entryY=0;entryDx=0;entryDy=0;" parent="1" source="_ZHwSp_K6urZNeZxSMzv-4" target="3h-WEEQfE9mpqYWTIAE3-1" edge="1">
                    <mxGeometry relative="1" as="geometry">
                        <mxPoint x="-680" y="650" as="sourcePoint"/>
                        <mxPoint x="-520" y="650" as="targetPoint"/>
                    </mxGeometry>
                </mxCell>
                <mxCell id="3h-WEEQfE9mpqYWTIAE3-24" value="1" style="edgeLabel;resizable=0;html=1;align=left;verticalAlign=top;" parent="3h-WEEQfE9mpqYWTIAE3-23" connectable="0" vertex="1">
                    <mxGeometry x="-1" relative="1" as="geometry"/>
                </mxCell>
                <mxCell id="3h-WEEQfE9mpqYWTIAE3-25" value="1" style="edgeLabel;resizable=0;html=1;align=right;verticalAlign=top;" parent="3h-WEEQfE9mpqYWTIAE3-23" connectable="0" vertex="1">
                    <mxGeometry x="1" relative="1" as="geometry">
                        <mxPoint x="18" y="-20" as="offset"/>
                    </mxGeometry>
                </mxCell>
                <mxCell id="3h-WEEQfE9mpqYWTIAE3-27" value="&lt;br&gt;" style="edgeLabel;html=1;align=center;verticalAlign=middle;resizable=0;points=[];" parent="3h-WEEQfE9mpqYWTIAE3-23" vertex="1" connectable="0">
                    <mxGeometry x="-0.35" y="-2" relative="1" as="geometry">
                        <mxPoint as="offset"/>
                    </mxGeometry>
                </mxCell>
                <mxCell id="3h-WEEQfE9mpqYWTIAE3-29" value="teaches" style="endArrow=0;html=1;endSize=12;startArrow=diamondThin;startSize=14;startFill=0;edgeStyle=orthogonalEdgeStyle;rounded=0;entryX=0.789;entryY=-0.02;entryDx=0;entryDy=0;entryPerimeter=0;exitX=0.5;exitY=1;exitDx=0;exitDy=0;" parent="1" source="_ZHwSp_K6urZNeZxSMzv-8" target="3h-WEEQfE9mpqYWTIAE3-1" edge="1">
                    <mxGeometry relative="1" as="geometry">
                        <mxPoint x="-150" y="620" as="sourcePoint"/>
                        <mxPoint x="-270" y="530" as="targetPoint"/>
                        <Array as="points">
                            <mxPoint x="-215" y="530"/>
                            <mxPoint x="-275" y="530"/>
                        </Array>
                    </mxGeometry>
                </mxCell>
                <mxCell id="3h-WEEQfE9mpqYWTIAE3-30" value="1" style="edgeLabel;resizable=0;html=1;align=left;verticalAlign=top;" parent="3h-WEEQfE9mpqYWTIAE3-29" connectable="0" vertex="1">
                    <mxGeometry x="-1" relative="1" as="geometry">
                        <mxPoint x="13" as="offset"/>
                    </mxGeometry>
                </mxCell>
                <mxCell id="3h-WEEQfE9mpqYWTIAE3-31" value="1..n" style="edgeLabel;resizable=0;html=1;align=right;verticalAlign=top;" parent="3h-WEEQfE9mpqYWTIAE3-29" connectable="0" vertex="1">
                    <mxGeometry x="1" relative="1" as="geometry">
                        <mxPoint x="5" y="-20" as="offset"/>
                    </mxGeometry>
                </mxCell>
            </root>
        </mxGraphModel>
    </diagram>
</mxfile>